<?xml version="1.0" encoding="UTF-8" standalone="no"?>
<!DOCTYPE svg PUBLIC "-//W3C//DTD SVG 1.1//EN" "http://www.w3.org/Graphics/SVG/1.1/DTD/svg11.dtd">
<svg version="1.1" xmlns="http://www.w3.org/2000/svg" xmlns:xlink="http://www.w3.org/1999/xlink" preserveAspectRatio="xMidYMid meet" viewBox="0 0 1920 696" width="1920" height="696"><defs><path d="M-17.68 0L1982.32 0L1982.32 696L-17.68 696L-17.68 0Z" id="fldUzAOrf"></path><path d="M1916.89 812.9L1920 0.04C1276.5 0.04 918.99 0.04 847.49 0.04C845.76 18.83 850.21 36.37 860.87 52.64C871.53 68.92 867.07 92.15 847.49 122.34C911.93 103.2 952.21 91.24 968.32 86.45C1133.89 37.28 1314.55 52.22 1467.52 127.73C1482.82 135.29 1521.07 154.18 1582.28 184.4C1572.31 203.76 1566.09 215.87 1563.59 220.71C1529.74 286.45 1487.46 348.35 1437.6 405.14C1408.45 438.35 1452.61 388.05 1437.6 405.14C1352.54 502.04 1204.31 532.17 1081.61 477.52C1081.61 477.52 1081.61 477.52 1081.61 477.52C934.44 580.47 803.89 636.77 689.97 646.41C576.03 656.06 490.74 643.04 434.08 607.38C416.97 614.75 406.28 619.35 402 621.19C281.21 673.18 139.58 666.54 25.39 603.54C22 601.67 13.54 597 0 589.53C0.21 604.42 1.25 678.88 3.11 812.9L1916.89 812.9Z" id="dLY0NOEqb"></path></defs><g><g><g><use xlink:href="#fldUzAOrf" opacity="1" fill="#00c853" fill-opacity="1"></use></g><g><use xlink:href="#dLY0NOEqb" opacity="1" fill="#fccd69" fill-opacity="1"></use></g></g></g></svg>