<?xml version="1.0" encoding="UTF-8" standalone="no"?>
<!DOCTYPE svg PUBLIC "-//W3C//DTD SVG 1.1//EN" "http://www.w3.org/Graphics/SVG/1.1/DTD/svg11.dtd">
<svg version="1.1" xmlns="http://www.w3.org/2000/svg" xmlns:xlink="http://www.w3.org/1999/xlink" preserveAspectRatio="xMidYMid meet" viewBox="0 0 1920 696" width="1920" height="696"><defs><path d="M-12.63 -5.05L1987.37 -5.05L1987.37 690.95L-12.63 690.95L-12.63 -5.05Z" id="f3hutHi5o"></path><path d="M1916.89 812.86L1920 0C1276.5 0 918.99 0 847.49 0C845.76 18.79 850.21 36.33 860.87 52.6C871.53 68.88 867.07 92.11 847.49 122.3C911.93 103.16 952.21 91.19 968.32 86.41C1133.89 37.24 1314.55 52.18 1467.52 127.69C1482.82 135.25 1521.07 154.14 1582.28 184.36C1572.31 203.72 1566.09 215.82 1563.59 220.66C1529.74 286.41 1487.46 348.31 1437.6 405.1C1408.45 438.3 1452.61 388.01 1437.6 405.1C1352.54 502 1204.31 532.13 1081.61 477.47C1081.61 477.47 1068.98 485.05 1068.98 485.05C1045.93 501.18 1018.72 516.13 987.37 529.89C920.45 561.37 857.94 579.57 799.84 584.49C685.9 594.13 581.67 550.81 525.01 515.15C515.94 519.05 492.37 537.78 460.9 554.79C432.99 569.88 396.43 583.62 394.42 584.49C326.58 613.69 248.23 610.65 159.36 575.38C132.48 564.71 107.17 550.41 84.16 532.88C34.42 494.99 6.37 474.29 0 470.78C0.21 485.67 0.21 597.59 0 806.55L1916.89 812.86Z" id="aM9GaPf2R"></path></defs><g><g><g><use xlink:href="#f3hutHi5o" opacity="1" fill="#00c853" fill-opacity="1"></use></g><g><use xlink:href="#aM9GaPf2R" opacity="1" fill="#fccd69" fill-opacity="1"></use></g></g></g></svg>