<?xml version="1.0" encoding="UTF-8" standalone="no"?>
<!DOCTYPE svg PUBLIC "-//W3C//DTD SVG 1.1//EN" "http://www.w3.org/Graphics/SVG/1.1/DTD/svg11.dtd">
<svg version="1.1" xmlns="http://www.w3.org/2000/svg" xmlns:xlink="http://www.w3.org/1999/xlink" preserveAspectRatio="xMidYMid meet" viewBox="0 0 2420 696" width="2420" height="696"><defs><path d="M-10.1 -5.05L1989.9 -5.05L1989.9 690.95L-10.1 690.95L-10.1 -5.05Z" id="b2pxKx1rW"></path><path d="M1591.47 690.95C1956.3 690.53 2318.77 692.21 2678.89 696L2594.24 0C1667.91 0 1168.99 0 1097.49 0C1095.76 18.79 1100.21 36.33 1110.87 52.6C1121.53 68.88 1117.07 92.11 1097.49 122.3C1161.93 103.16 1202.21 91.19 1218.32 86.41C1383.89 37.24 1564.55 52.18 1717.52 127.69C1732.82 135.25 1771.07 154.14 1832.28 184.36C1822.31 203.72 1816.09 215.82 1813.59 220.66C1779.74 286.41 1737.46 348.31 1687.6 405.1C1658.45 438.3 1702.61 388.01 1687.6 405.1C1602.54 502 1454.31 532.13 1331.61 477.47C1331.61 477.47 1318.98 485.05 1318.98 485.05C1295.93 501.18 1268.72 516.13 1237.37 529.89C1170.45 561.37 1107.94 579.57 1049.84 584.49C935.9 594.13 831.67 550.81 775.01 515.15C765.94 519.05 742.37 537.78 710.9 554.79C682.99 569.88 646.43 583.62 644.42 584.49C576.58 613.69 498.23 610.65 409.36 575.38C382.48 564.71 357.17 550.41 334.16 532.88C284.42 494.99 256.37 474.29 250 470.78C250 470.84 244.62 463.16 233.86 447.76C197.34 395.49 167.24 339.02 144.19 279.57C142.99 276.47 142.29 274.59 142.08 273.93C141.03 270.56 138.69 263.84 135.06 253.75C122.64 219.27 115.97 182.98 115.29 146.33C115.12 137.21 115.22 129.56 115.6 123.39C115.73 121.2 117.03 116.69 119.51 109.84C137.72 59.53 179.43 21.34 231.15 7.62C237.52 5.93 253.44 1.71 278.92 -5.05L-10.1 -5.05L-10.1 184.36L-10.1 698.53C692.78 693.9 1226.64 691.37 1591.47 690.95Z" id="a2m57tFwQl"></path></defs><g><g><g><use xlink:href="#b2pxKx1rW" opacity="1" fill="#00c853" fill-opacity="1"></use></g><g><use xlink:href="#a2m57tFwQl" opacity="1" fill="#fccd69" fill-opacity="1"></use></g></g></g></svg>